<svg width="738" height="611" viewBox="0 0 738 611" fill="none" xmlns="http://www.w3.org/2000/svg">
<g clip-path="url(#clip0)">
<path style="mix-blend-mode:lighten" opacity="0.5" d="M477.839 576.775C612.217 576.775 721.152 513.927 721.152 436.399C721.152 358.871 612.217 296.023 477.839 296.023C343.462 296.023 234.527 358.871 234.527 436.399C234.527 513.927 343.462 576.775 477.839 576.775Z" fill="url(#paint0_radial)"/>
<path opacity="0.7" d="M670.742 496.516L603.467 457.695L670.742 418.891L738.001 457.712L670.742 496.516Z" fill="#0B0244"/>
<path opacity="0.7" d="M588.254 546.493L520.978 507.672L588.254 468.868L655.512 507.689L588.254 546.493Z" fill="#0B0244"/>
<path opacity="0.7" d="M505.749 596.47L438.491 557.666L505.749 518.845L573.025 557.666L505.749 596.47Z" fill="#0B0244"/>
<path opacity="0.7" d="M291.897 244.617C291.053 244.021 290.098 243.601 289.089 243.382C288.08 243.163 287.036 243.15 286.022 243.343C280.025 244.76 274.425 247.508 269.635 251.382C264.846 255.256 260.99 260.158 258.353 265.723C249.739 284.247 263.195 297.004 266.02 299.38C263.73 302.655 261.256 305.799 258.612 308.797C254.529 306.576 250.205 304.183 245.691 301.618C238.352 297.521 230.599 293.01 222.467 288.052L216.334 284.299L213.216 282.388L210.115 280.425L203.792 276.431C201.759 275.089 199.709 273.746 197.624 272.403C199.64 270.44 203.534 266.515 208.289 261.264C212.665 261.471 235.854 261.712 245.243 244.978C253.133 230.81 245.243 221.032 241.108 217.244C240.418 216.668 239.617 216.238 238.755 215.98C237.894 215.723 236.988 215.643 236.095 215.746C224.548 217.214 214.035 223.14 206.807 232.256C195.35 247.096 205.084 258.768 207.152 260.886C202.5 266.05 198.693 269.838 196.66 271.818C192.628 269.201 188.649 266.464 184.6 263.726C182.429 262.28 180.362 260.782 178.226 259.285C176.089 257.787 173.953 256.289 171.834 254.774C164.943 249.747 158.051 244.617 151.298 239.383C152.349 238.609 154.089 237.317 156.346 235.579C158.603 233.84 161.945 231.223 165.391 228.383C169.043 228.779 191.043 230.5 202.242 216.073C211.614 204.022 205.687 194.933 202.362 191.352C201.768 190.793 201.065 190.363 200.298 190.087C199.53 189.812 198.714 189.697 197.9 189.751C186.843 190.476 176.392 195.058 168.371 202.697C156.036 214.903 162.824 225.559 164.65 227.832C158.155 233.186 152.935 237.076 150.678 238.746L147.094 235.923C135.931 227.023 125.353 217.898 115.705 208.843C119.867 206.442 123.862 203.761 127.661 200.82C128.953 199.822 130.297 198.72 131.675 197.567C135.121 197.79 153.055 198.238 160.842 185.653C167.475 174.962 161.704 167.388 158.637 164.444C158.117 163.99 157.509 163.648 156.851 163.438C156.194 163.227 155.5 163.154 154.813 163.221C145.805 164.211 137.504 168.564 131.572 175.41C122.407 186.29 128.988 195.174 130.693 197.119C125.798 201.255 120.552 204.959 115.016 208.189C110.967 204.384 107.091 200.579 103.421 196.826C100.86 194.232 98.4078 191.656 96.0648 189.096C96.0743 189.057 96.0743 189.016 96.0648 188.976C96.0648 188.804 95.8236 188.614 95.5135 188.563L93.1015 185.894C93.8423 184.569 97.064 178.733 100.975 171.416C104.627 171.244 121.218 169.694 125.094 156.111C128.54 144.37 121.046 137.174 117.359 134.437C116.795 134.038 116.157 133.757 115.482 133.609C114.807 133.461 114.11 133.45 113.431 133.576C109.399 134.535 105.634 136.387 102.413 138.994C99.193 141.601 96.5996 144.897 94.8243 148.64C88.984 160.983 97.8909 169.522 99.8549 171.192C96.4093 177.786 93.3772 183.243 92.2918 185.102C85.3615 177.361 78.846 169.258 72.7724 160.828L69.8953 156.834C68.965 155.543 68.1725 154.269 67.38 153.03C67.156 152.703 66.9665 152.376 66.7425 152.048C68.3792 150.895 74.0989 145.765 67.7934 134.489C63.7259 127.318 57.6229 121.513 50.2552 117.807C49.7724 117.547 49.2386 117.395 48.6912 117.362C48.1437 117.33 47.5957 117.417 47.0853 117.617C44.3977 119.063 39.1604 123.384 43.5535 133.92C48.722 146.298 63.0557 151.291 65.9501 152.169L66.5358 153.116C67.3455 154.373 68.0691 155.647 68.9822 156.938L71.7559 160.915C78.4068 170.443 85.6209 179.566 93.3599 188.236C88.8806 187.513 77.7685 185.722 65.0369 183.76C63.3141 182.038 54.2005 174.222 32.6137 171.158C13.9729 168.507 4.39405 171.158 0.931198 172.587C0.709112 172.642 0.506583 172.757 0.346014 172.92C0.185445 173.083 0.0730938 173.287 0.0213833 173.51C-0.0303273 173.732 -0.0193865 173.965 0.0530077 174.182C0.125402 174.399 0.256427 174.592 0.431581 174.739C2.94688 177.631 10.6134 184.293 30.2534 188.167C53.0117 192.677 62.9868 185.98 64.9853 184.414C78.4576 186.497 90.1038 188.373 94.0663 189.01C96.4897 191.73 99.0337 194.479 101.698 197.257C106.143 201.922 110.898 206.656 115.912 211.391C113.034 211.856 105.058 213.112 94.0491 214.283C91.6888 212.854 79.0089 205.933 57.0603 207.121C38.3506 208.137 30.9081 213.147 28.4617 215.436C27.7381 216.108 28.031 217.158 29.168 217.933C33.0788 220.601 43.8119 226.351 64.1411 226.54C87.7091 226.713 93.4289 217.158 94.3075 215.006C105.644 213.801 113.792 212.527 116.583 212.079C125.353 220.36 134.88 228.692 144.889 236.835C147.06 238.557 149.282 240.399 151.522 242.172C148.921 242.758 141.03 244.496 130.073 246.631C126.955 245.151 111.415 238.557 88.3121 242.31C68.4481 245.529 61.8498 252.192 59.8341 255.136C59.2483 255.996 59.8341 257.167 61.2984 257.959C66.2601 260.679 79.4052 266.24 101.319 264.191C127.161 261.798 130.263 249.609 130.607 247.303C141.874 245.116 149.903 243.326 152.297 242.775C157.983 247.234 163.788 251.624 169.525 255.928C171.627 257.477 173.781 258.992 175.883 260.507C177.984 262.022 180.069 263.554 182.222 265.017C186.512 267.961 190.681 270.905 194.954 273.625L196.522 274.675C194.799 275.485 189.631 277.688 181.585 280.632C166.15 275.565 149.525 275.384 133.984 280.116C112.914 286.244 107.521 295.024 106.143 298.795C105.747 299.896 106.763 301.256 108.59 302.048C114.861 304.751 130.986 309.967 154.761 305.027C183.101 299.139 182.584 283.8 182.326 281.269C190.544 278.273 195.66 276.104 197.4 275.244C198.693 276.122 200.002 276.965 201.277 277.826C203.396 279.203 205.48 280.563 207.565 281.889L210.649 283.903L213.75 285.848L219.849 289.67C227.963 294.646 235.716 299.294 243.02 303.443C247.948 306.278 252.622 308.917 257.044 311.362C255.321 312.205 250.153 314.805 242.021 318.059C224.926 312.643 206.552 312.788 189.544 318.472C166.855 325.789 161.48 335.688 160.257 339.94C159.895 341.179 161.084 342.66 163.134 343.504C170.163 346.379 188.183 351.801 213.819 345.742C243.916 338.649 243.107 322.053 242.555 318.782C251.031 315.339 256.441 312.67 258.061 311.896C266.296 316.423 273.48 320.211 279.182 323.137C283.662 325.427 287.21 327.183 289.657 328.388L293.464 330.213L295.893 327.631L292.138 325.961C289.726 324.807 286.194 323.103 281.801 320.796C275.857 317.818 268.294 313.91 259.594 309.21C262.271 306.182 264.773 303.003 267.088 299.69C271.085 299.569 297.547 297.968 303.56 276.81C308.504 259.388 297.306 248.68 291.897 244.617Z" fill="#0B0244"/>
<g opacity="0.7">
<path opacity="0.7" d="M240.453 338.132C240.453 338.132 229.634 367.812 189.578 371.341C158.878 374.027 145.061 361.855 140.272 356.019C139.599 355.189 139.232 354.153 139.232 353.084C139.232 352.015 139.599 350.979 140.272 350.149C144.94 344.313 158.275 331.212 186.994 325.961C224.431 319.075 240.453 338.132 240.453 338.132Z" fill="url(#paint1_linear)"/>
</g>
<g opacity="0.7">
<path opacity="0.7" d="M279.509 316.974C279.509 316.974 310.313 324.101 335.122 292.494C354.073 268.254 351.471 250.04 349.197 242.844C348.871 241.825 348.207 240.948 347.313 240.36C346.42 239.771 345.352 239.505 344.287 239.607C336.844 240.313 318.583 244.324 298.512 265.431C272.308 293.251 279.509 316.974 279.509 316.974Z" fill="url(#paint2_linear)"/>
</g>
<g opacity="0.7">
<path opacity="0.7" d="M250.928 246.924C250.928 246.924 276.771 256.702 301.889 232.273C321.167 213.56 321.012 197.498 319.875 190.956C319.733 190.026 319.272 189.175 318.571 188.547C317.871 187.919 316.974 187.554 316.033 187.513C309.504 187.254 293.241 188.58 273.394 204.539C247.483 225.508 250.928 246.924 250.928 246.924Z" fill="url(#paint3_linear)"/>
</g>
<g opacity="0.7">
<path opacity="0.7" d="M234.234 188.993C234.234 188.993 256.786 200.08 281.698 180.075C300.804 164.771 302.044 150.189 301.579 144.198C301.527 143.342 301.179 142.531 300.594 141.903C300.01 141.275 299.225 140.869 298.375 140.755C292.483 139.963 277.615 139.756 258.233 152.548C232.96 169.298 234.234 188.993 234.234 188.993Z" fill="url(#paint4_linear)"/>
</g>
<g opacity="0.7">
<path opacity="0.7" d="M224.587 136.21C224.587 136.21 244.21 144.301 264.108 126.053C279.338 112.074 279.614 99.713 278.838 94.686C278.737 93.9764 278.393 93.3236 277.866 92.8375C277.339 92.3514 276.66 92.0618 275.944 92.0176C270.931 91.6733 258.406 92.3447 242.78 104.189C222.416 119.666 224.587 136.21 224.587 136.21Z" fill="url(#paint5_linear)"/>
</g>
<g opacity="0.7">
<path opacity="0.7" d="M214.421 90.9846C214.421 90.9846 235.095 95.8394 251.789 74.647C264.606 58.4126 262.849 46.1723 261.316 41.3347C261.105 40.6497 260.664 40.0583 260.068 39.66C259.472 39.2618 258.756 39.0811 258.042 39.1484C253.046 39.6132 240.814 42.2816 227.256 56.4845C209.631 75.0085 214.421 90.9846 214.421 90.9846Z" fill="url(#paint6_linear)"/>
</g>
<g opacity="0.7">
<path opacity="0.7" d="M209.667 269.562C209.667 269.562 199.002 296.092 162.651 298.089C134.81 299.621 122.665 288.19 118.513 282.767C117.919 282.003 117.608 281.058 117.633 280.091C117.658 279.124 118.018 278.196 118.65 277.464C123.044 272.3 135.482 260.851 161.635 256.96C195.746 251.934 209.667 269.562 209.667 269.562Z" fill="url(#paint7_linear)"/>
</g>
<g opacity="0.7">
<path opacity="0.7" d="M184.807 207.793C184.807 207.793 172.42 228.865 141.444 225.921C117.704 223.665 108.9 212.475 106.075 207.362C105.671 206.639 105.53 205.799 105.674 204.983C105.819 204.168 106.24 203.427 106.867 202.886C111.226 199.099 123.217 190.99 145.82 191.025C175.297 191.093 184.807 207.793 184.807 207.793Z" fill="url(#paint8_linear)"/>
</g>
<g opacity="0.7">
<path opacity="0.7" d="M174.195 152.221C174.195 152.221 160.654 168.971 134.053 162.378C113.673 157.334 107.453 146.419 105.662 141.599C105.405 140.919 105.39 140.172 105.619 139.482C105.847 138.793 106.307 138.203 106.919 137.811C111.226 135.074 122.717 129.565 142.409 132.543C168.096 136.434 174.195 152.221 174.195 152.221Z" fill="url(#paint9_linear)"/>
</g>
<g opacity="0.7">
<path opacity="0.7" d="M169.163 101.073C169.163 101.073 152.314 112.108 130.52 98.6456C113.826 88.3851 111.414 76.8334 111.242 72.0302C111.212 71.3498 111.416 70.6796 111.821 70.1314C112.225 69.5832 112.805 69.19 113.465 69.0175C118.064 67.8124 129.883 66.1941 146.543 74.4748C168.25 85.269 169.163 101.073 169.163 101.073Z" fill="url(#paint10_linear)"/>
</g>
<g opacity="0.7">
<path opacity="0.7" d="M195.661 55.1417C195.661 55.1417 182.189 44.3302 187.391 22.9829C191.388 6.64522 200.123 1.61825 203.982 0.172138C204.528 -0.0389446 205.129 -0.0548201 205.685 0.127198C206.241 0.309216 206.717 0.677907 207.032 1.17065C209.237 4.61377 213.699 13.8069 211.356 29.5937C208.255 50.1836 195.661 55.1417 195.661 55.1417Z" fill="url(#paint11_linear)"/>
</g>
<path opacity="0.7" d="M165.029 351.595C165.022 351.522 165.029 351.449 165.051 351.38C165.072 351.31 165.107 351.246 165.153 351.19C165.2 351.134 165.257 351.087 165.321 351.053C165.386 351.02 165.456 350.999 165.529 350.992C197.884 348.267 229.811 341.779 260.662 331.659C258.164 327.08 255.494 322.122 252.858 316.819C248.844 309.003 244.761 300.396 240.557 291.237L237.456 284.23C236.939 283.059 236.405 281.872 235.888 280.666L234.372 277.034C233.338 274.589 232.322 272.127 231.271 269.631C230.668 268.082 230.048 266.515 229.428 264.966C223.553 266.687 190.061 276.414 141.272 279.995C141.125 280.006 140.981 279.959 140.869 279.864C140.758 279.769 140.689 279.633 140.677 279.487C140.666 279.341 140.713 279.196 140.808 279.085C140.903 278.974 141.039 278.905 141.185 278.893C189.631 275.347 222.967 265.775 229.049 263.933L228.291 262.022C226.241 256.857 224.38 251.693 222.416 246.356C221.417 243.722 220.555 241.002 219.625 238.299C218.695 235.596 217.764 232.876 216.886 230.139C214.474 222.512 212.131 214.765 209.994 206.932C181.301 209.06 152.503 209.399 123.768 207.948C123.695 207.943 123.624 207.925 123.559 207.893C123.494 207.861 123.436 207.817 123.388 207.762C123.34 207.708 123.303 207.645 123.279 207.576C123.256 207.507 123.246 207.435 123.251 207.362C123.255 207.29 123.274 207.219 123.306 207.154C123.338 207.089 123.382 207.03 123.436 206.982C123.491 206.934 123.554 206.898 123.623 206.874C123.692 206.851 123.764 206.841 123.837 206.846C152.445 208.302 181.117 207.969 209.684 205.847C208.834 202.748 208.03 199.644 207.272 196.534C203.689 182.331 200.726 167.956 198.521 153.839C191.802 153.839 158.052 153.408 124.629 145.575C124.502 145.53 124.395 145.44 124.33 145.322C124.265 145.204 124.245 145.066 124.275 144.935C124.305 144.803 124.382 144.687 124.491 144.608C124.601 144.529 124.736 144.494 124.87 144.508C149.007 149.817 173.635 152.575 198.348 152.737C197.091 144.663 196.074 136.658 195.316 128.825C194.845 124.165 194.478 119.574 194.213 115.052C186.581 110.955 146.423 89.4352 127.317 81.1373C127.184 81.0737 127.081 80.961 127.029 80.8228C126.978 80.6847 126.982 80.532 127.041 80.397C127.101 80.2653 127.211 80.1625 127.346 80.111C127.482 80.0594 127.632 80.0632 127.765 80.1215C146.457 88.2473 185.203 108.958 194.127 113.761C193.232 98.8541 193.232 83.907 194.127 69.0002C194.248 66.8139 194.369 64.6619 194.489 62.5616C194.61 60.4613 194.885 58.4298 195.075 56.45C195.506 52.4732 195.902 48.6858 196.264 45.1566C196.625 41.6274 197.315 38.2703 197.797 35.2748C198.279 32.2793 198.641 29.4215 199.158 26.908C201.243 16.9057 202.449 11.1729 202.449 11.1729H202.81C202.81 11.1729 201.708 16.9057 199.744 26.9252C199.261 29.4387 198.951 32.2621 198.503 35.292L197.108 45.1738C196.798 48.6169 196.453 52.4732 196.091 56.45C195.919 58.4298 195.678 60.4613 195.574 62.5616C195.471 64.6619 195.385 66.7966 195.299 68.983C194.68 82.2691 194.778 95.5789 195.592 108.854C201.742 102.881 233.08 72.2884 250.188 53.7644C250.293 53.6664 250.431 53.6119 250.575 53.6119C250.719 53.6119 250.858 53.6664 250.963 53.7644C251.065 53.8675 251.122 54.0067 251.122 54.1518C251.122 54.2968 251.065 54.436 250.963 54.5391C233.063 73.8895 199.623 106.427 195.643 110.283L195.954 114.742C196.077 114.815 196.169 114.931 196.211 115.068C196.253 115.206 196.241 115.354 196.177 115.482C196.177 115.482 196.074 115.586 196.022 115.637C196.367 119.907 196.763 124.245 197.263 128.618C197.952 134.936 198.848 141.375 199.882 147.865C224.036 137.572 246.195 123.121 265.348 105.17C265.4 105.113 265.463 105.068 265.533 105.036C265.603 105.005 265.679 104.988 265.756 104.988C265.833 104.988 265.909 105.004 265.979 105.034C266.05 105.065 266.113 105.11 266.165 105.167C266.216 105.224 266.256 105.291 266.28 105.364C266.305 105.436 266.314 105.514 266.307 105.59C266.3 105.666 266.277 105.741 266.239 105.808C266.202 105.875 266.151 105.933 266.089 105.979C251.735 119.345 235.74 130.834 218.488 140.17C212.503 143.453 206.337 146.396 200.019 148.984C202.569 164.745 205.909 180.368 210.029 195.793C210.46 197.515 210.925 199.099 211.373 200.734C236.589 187.591 260.869 172.727 284.041 156.249C284.099 156.201 284.167 156.165 284.24 156.144C284.313 156.122 284.389 156.117 284.464 156.126C284.54 156.136 284.612 156.161 284.677 156.2C284.742 156.24 284.798 156.292 284.842 156.353C284.886 156.415 284.917 156.485 284.933 156.56C284.948 156.634 284.948 156.71 284.933 156.785C284.918 156.859 284.887 156.929 284.843 156.991C284.799 157.053 284.743 157.105 284.678 157.144C263.905 171.934 242.23 185.417 219.78 197.515C216.11 199.495 213.319 200.958 211.648 201.819C214.215 211.029 217.092 220.136 220.038 229.071C220.969 231.774 221.951 234.46 222.881 237.145C223.811 239.831 224.742 242.499 225.775 245.116C227.67 250.057 229.497 254.981 231.478 259.749C256.702 242.991 280.604 224.326 302.974 203.919C303.026 203.862 303.089 203.816 303.159 203.785C303.229 203.754 303.305 203.737 303.382 203.737C303.459 203.737 303.535 203.752 303.605 203.783C303.676 203.814 303.739 203.859 303.791 203.916C303.843 203.973 303.882 204.04 303.907 204.112C303.931 204.185 303.94 204.262 303.933 204.339C303.926 204.415 303.903 204.49 303.865 204.557C303.828 204.624 303.777 204.682 303.715 204.728C281.253 225.225 257.247 243.965 231.909 260.782C232.908 263.244 233.907 265.689 234.906 268.099L238.076 275.416L239.627 278.997L241.246 282.526L244.416 289.412C248.706 298.45 252.875 306.937 256.975 314.65C259.491 319.436 261.937 323.947 264.28 328.13C270.465 323.654 302.044 299.827 334.088 258.94C334.128 258.872 334.182 258.814 334.246 258.768C334.31 258.723 334.383 258.691 334.46 258.676C334.538 258.661 334.617 258.663 334.694 258.682C334.77 258.7 334.842 258.734 334.904 258.783C334.966 258.831 335.017 258.892 335.054 258.962C335.09 259.032 335.111 259.108 335.115 259.187C335.12 259.265 335.107 259.344 335.079 259.417C335.05 259.49 335.006 259.557 334.95 259.612C302.682 300.809 270.844 324.738 264.831 329.094C269.845 338.012 274.359 345.466 277.959 351.199C280.664 355.503 282.852 358.825 284.368 361.081C285.884 363.336 286.711 364.524 286.711 364.524L282.197 367.691C282.197 367.691 281.336 366.452 279.837 364.145C278.338 361.838 276.133 358.412 273.463 354.022C270.017 348.427 265.813 341.231 261.127 332.675C230.14 342.858 198.068 349.387 165.563 352.128C165.423 352.124 165.29 352.067 165.19 351.967C165.091 351.868 165.033 351.735 165.029 351.595Z" fill="url(#paint12_linear)"/>
<path opacity="0.7" d="M674.601 342.574C686.212 326.202 690.881 313.462 690.468 304.304C690.468 304.304 690.468 304.149 690.468 304.063C689.899 293.905 683.025 288.224 672.464 286.95L671.741 286.864C667.078 286.457 662.381 286.7 657.786 287.587C643.831 290.049 634.563 296.901 633.15 304.803C632.672 307.734 631.279 310.44 629.17 312.533C628.396 313.318 627.528 314.006 626.586 314.581L626.362 314.719C623.112 316.512 619.506 317.565 615.801 317.801C604.534 318.851 594.869 322.466 589.649 327.855C586.823 330.781 584.033 333.846 581.31 337.082C536.104 390.95 485.832 418.46 469.018 430.046C466.675 431.665 466.761 433.627 468.329 435.211C468.447 435.335 468.573 435.45 468.708 435.555C470.152 436.563 471.781 437.276 473.502 437.655C475.222 438.033 477 438.068 478.734 437.759C494.45 435.593 510.04 432.599 525.44 428.79H525.698L526.198 428.669H526.301C553.091 422.007 585.652 411.316 615.129 394.548L616.266 393.859L616.818 393.549H616.731C622.899 389.486 625.673 384.218 624.88 378.83C624.536 376.575 625.397 373.992 628.033 371.049C634.028 364.3 645.037 360.323 656.253 356.742C662.851 354.625 668.054 351.457 670.983 347.618C672.154 346.069 673.274 344.554 674.325 343.073L674.583 342.712L674.601 342.574Z" fill="#0B0244"/>
<path opacity="0.7" d="M670.294 213.508V213.353C702.476 108.338 679.563 68.0189 643.935 84.8042C628.154 92.2585 618.644 108.51 618.437 125.95C618.53 131.942 617.453 137.894 615.267 143.475C614.036 146.684 612.078 149.565 609.546 151.892C607.015 154.219 603.978 155.928 600.675 156.886C594.291 158.796 588.415 162.106 583.473 166.573C578.532 171.04 574.65 176.553 572.111 182.709C569.354 189.492 566.667 196.602 564.1 204.04C521.357 327.992 467.915 395.34 450.498 423.126C449.323 424.992 448.766 427.181 448.908 429.381C449.049 431.582 449.881 433.681 451.285 435.382C452.689 437.083 454.595 438.298 456.73 438.854C458.865 439.411 461.121 439.281 463.178 438.482C488.779 428.566 558.69 396.424 613.889 324.119C617.669 319.062 620.373 313.285 621.834 307.144C623.295 301.004 623.481 294.629 622.382 288.413C621.579 282.469 622.357 276.418 624.639 270.871C630.394 255.291 642.47 245.047 654.84 235.544C662.169 229.992 667.573 222.286 670.294 213.508Z" fill="url(#paint13_linear)"/>
<path opacity="0.7" d="M617.645 209.325L673.378 203.041L673.636 202.163L618.007 208.43C629.584 179.989 640.403 149.38 650.499 116.808H685.11C685.11 116.515 685.11 116.24 685.024 115.964H650.758C654.203 104.614 657.603 93.0333 660.957 81.2233H660.112C650.689 114.794 640.851 145.162 630.825 172.604L612.838 147.968L612.322 148.691L630.463 173.551C618.848 205.627 605.441 237.026 590.304 267.6L559.414 217.124L559.052 218.122L589.856 268.495C567.305 313.497 545.494 345.724 527.18 368.346C526.095 369.688 525.01 371.014 523.924 372.305L509.642 328.423C509.47 328.767 509.28 329.094 509.091 329.438L523.287 373.063C487.039 416.412 458.337 430.976 450.636 434.299L451.136 434.987C456.769 432.526 472.429 424.658 493.637 405.411L515.879 411.918L516.172 411.746L516.74 411.402H516.843L494.361 404.826C506.386 393.739 517.558 381.763 527.783 369C541.293 352.151 553.661 334.42 564.807 315.924L615.13 322.363L615.698 321.605L565.289 315.149C578.231 293.684 589.993 271.529 600.52 248.783C606.366 236.135 612.075 222.983 617.645 209.325Z" fill="url(#paint14_linear)"/>
<path opacity="0.7" d="M538.085 171.106V171.02C540.463 90.1066 516.344 66.0047 494.326 84.9419C489.613 89.124 486.17 94.5443 484.388 100.586C482.606 106.627 482.558 113.047 484.248 119.115C485.46 123.34 485.835 127.761 485.35 132.13C485.105 134.648 484.279 137.074 482.937 139.219C481.595 141.364 479.773 143.169 477.615 144.491C473.457 147.083 469.928 150.568 467.285 154.692C464.642 158.816 462.951 163.476 462.333 168.334C461.696 173.689 461.179 179.266 460.817 185.034C454.615 281.441 429.807 339.578 422.916 362.699C422.423 364.263 422.442 365.944 422.97 367.496C423.498 369.049 424.507 370.393 425.851 371.334C427.196 372.274 428.805 372.762 430.446 372.726C432.087 372.69 433.673 372.133 434.975 371.135C472.541 342.476 501.742 304.289 519.548 260.541C521.242 256.213 522.033 251.585 521.873 246.94C521.713 242.295 520.605 237.732 518.618 233.53C516.932 229.491 516.338 225.08 516.895 220.739C517.946 208.567 524.51 198.892 531.453 189.751C535.556 184.38 537.875 177.86 538.085 171.106Z" fill="url(#paint15_linear)"/>
<path opacity="0.7" d="M499.892 178.371L538.242 163.066V162.412L499.978 177.7C502.654 155.228 504.377 131.436 505.147 106.324L529.731 99.558L529.49 98.9899L505.216 105.601C505.491 96.8666 505.646 87.9833 505.681 78.9509L505.061 79.0886C504.923 104.757 503.855 128.239 502.097 149.673L484.525 135.676C484.525 135.883 484.37 136.09 484.301 136.279L502.028 150.413C500.028 175.448 496.628 200.352 491.847 225.008L460.078 195.174C460.078 195.432 460.078 195.69 460.078 195.948L491.761 225.714C484.525 262.056 475.325 289.188 466.728 308.831C466.211 310.002 465.694 311.138 465.178 312.274L446.502 283.886L446.296 284.712L464.885 312.929C447.657 350.803 430.032 366.676 425.26 370.566L425.76 370.962C429.205 368.105 438.853 359.462 450.172 341.696L467.228 341.989L467.4 341.799L467.727 341.455L450.499 341.145C456.89 330.938 462.5 320.262 467.279 309.21C473.583 294.618 478.913 279.625 483.233 264.329L520.204 259.164L520.463 258.51L483.422 263.675C488.415 245.927 492.441 227.922 495.482 209.738C497.136 199.615 498.606 189.16 499.892 178.371Z" fill="url(#paint16_linear)"/>
<path d="M252.358 264.759L284.023 77.1088L281.474 76.0415L285.246 73.8034C285.706 73.553 286.228 73.4394 286.75 73.476C287.272 73.5126 287.772 73.6979 288.192 74.01L541.222 219.981C542.29 220.665 543.157 221.62 543.735 222.748C544.313 223.876 544.581 225.137 544.512 226.403L512.657 415.62C512.618 416.03 512.474 416.422 512.239 416.76C512.003 417.098 511.685 417.369 511.314 417.548L507.558 419.717L506.92 416.274H507.127L255.597 271.163C254.541 270.475 253.686 269.52 253.117 268.396C252.548 267.271 252.287 266.017 252.358 264.759Z" fill="url(#paint17_linear)"/>
<path d="M539.878 225.129L544.03 223.304C544.496 224.272 544.681 225.352 544.564 226.42L512.657 415.62C512.618 416.029 512.474 416.422 512.238 416.76C512.003 417.098 511.684 417.369 511.313 417.548L507.558 419.717L506.92 416.274H507.127L494.413 408.923L539.878 225.129Z" fill="url(#paint18_linear)"/>
<path d="M251.686 273.453L504.715 419.442C506.662 420.578 508.333 419.924 508.678 417.892L540.601 228.71C540.674 227.444 540.408 226.181 539.829 225.052C539.251 223.923 538.381 222.969 537.311 222.288L284.282 76.3341C282.318 75.1979 280.647 75.852 280.302 77.8835L248.396 267.032C248.323 268.298 248.589 269.56 249.168 270.689C249.746 271.818 250.616 272.772 251.686 273.453Z" fill="#24126A"/>
<g opacity="0.51">
<path opacity="0.51" d="M287.589 88.3678L531.487 229.088L501.252 407.27L257.509 266.653L287.589 88.3678Z" fill="#453C9E"/>
</g>
<path opacity="0.7" d="M350.455 546.149C348.475 546.164 346.523 545.672 344.787 544.72L94.3248 400.229C93.5863 399.89 92.9496 399.363 92.478 398.702C92.0065 398.04 91.7166 397.267 91.6373 396.459C91.6673 395.812 91.8721 395.186 92.2301 394.646C92.5881 394.106 93.0858 393.674 93.6702 393.394L243.124 307.161C244.721 306.417 246.473 306.063 248.235 306.129C249.996 306.195 251.717 306.679 253.254 307.54L503.699 452.048C504.443 452.382 505.085 452.906 505.56 453.569C506.035 454.231 506.326 455.007 506.404 455.818C506.374 456.465 506.169 457.091 505.811 457.631C505.453 458.171 504.955 458.603 504.371 458.883L354.917 545.116C353.54 545.829 352.006 546.184 350.455 546.149ZM95.1863 398.731L345.648 543.239C346.928 543.939 348.351 544.337 349.808 544.403C351.265 544.468 352.718 544.2 354.056 543.618L503.509 457.385C503.823 457.246 504.095 457.029 504.3 456.755C504.505 456.48 504.636 456.158 504.681 455.818C504.681 455.061 503.992 454.2 502.837 453.529L252.393 309.038C251.113 308.338 249.69 307.94 248.233 307.874C246.776 307.809 245.323 308.077 243.985 308.659L94.5316 394.823C94.217 394.965 93.944 395.185 93.7389 395.462C93.5338 395.74 93.4033 396.065 93.3601 396.407C93.4503 396.908 93.6646 397.379 93.9837 397.776C94.3027 398.173 94.7161 398.483 95.1863 398.68V398.731Z" fill="url(#paint19_linear)"/>
<path d="M92.6195 363.026L106.402 370.239L244.864 290.359C246.296 289.71 247.859 289.405 249.429 289.468C251 289.531 252.534 289.96 253.909 290.72L492.725 428.445C494.999 427.154 505.422 422.162 505.422 422.162L500.374 435.314C500.112 435.992 499.609 436.55 498.961 436.881L353.143 521.014C351.711 521.664 350.146 521.968 348.575 521.903C347.004 521.837 345.47 521.403 344.098 520.635L99.7175 379.708C98.7978 379.243 98.0717 378.469 97.6673 377.522L92.6195 363.026Z" fill="url(#paint20_linear)"/>
<path d="M94.7551 365.299L345.217 509.807C346.626 510.587 348.197 511.027 349.807 511.093C351.416 511.159 353.018 510.848 354.486 510.185L503.94 423.952C506.317 422.592 506.024 420.199 503.268 418.615L252.823 274.107C251.414 273.327 249.843 272.886 248.233 272.821C246.624 272.755 245.022 273.066 243.554 273.729L94.1004 359.962C91.723 361.322 92.0158 363.715 94.7551 365.299Z" fill="url(#paint21_linear)"/>
<path d="M94.7558 364.179L345.218 508.67C346.625 509.453 348.196 509.897 349.805 509.966C351.415 510.034 353.018 509.726 354.487 509.066L503.94 422.833C504.292 422.66 504.606 422.419 504.864 422.123C505.121 421.828 505.317 421.484 505.439 421.112C505.566 421.69 505.485 422.295 505.211 422.82C504.937 423.346 504.487 423.758 503.94 423.987L354.487 510.168C353.019 510.831 351.417 511.142 349.807 511.076C348.198 511.01 346.627 510.57 345.218 509.789L94.7558 365.298C93.033 364.283 92.2578 362.906 92.5851 361.7C92.7646 362.237 93.0489 362.732 93.4216 363.158C93.7942 363.583 94.2477 363.931 94.7558 364.179Z" fill="white"/>
<path d="M420.763 478.543V475.737C420.763 475.478 420.608 475.358 420.418 475.478L410.719 481.074C410.613 481.151 410.527 481.252 410.467 481.369C410.408 481.485 410.376 481.614 410.374 481.745V484.482C410.374 484.74 410.529 484.861 410.719 484.758L420.418 479.163C420.517 479.09 420.6 478.998 420.659 478.891C420.719 478.784 420.754 478.665 420.763 478.543Z" fill="#2842A2"/>
<path d="M406.274 486.893V484.155C406.274 483.897 406.119 483.777 405.93 483.88L396.23 489.509C396.126 489.588 396.04 489.689 395.981 489.805C395.921 489.922 395.888 490.05 395.886 490.181V492.952C395.886 493.211 396.041 493.331 396.23 493.211L405.93 487.633C406.042 487.546 406.131 487.433 406.191 487.304C406.251 487.175 406.28 487.034 406.274 486.893Z" fill="#2842A2"/>
<path d="M464.969 415.878L256.837 295.799C256.155 295.409 255.383 295.205 254.597 295.205C253.811 295.205 253.039 295.409 252.357 295.799L178.277 338.649C178.033 338.789 177.831 338.991 177.691 339.235C177.551 339.478 177.477 339.754 177.477 340.035C177.477 340.315 177.551 340.591 177.691 340.834C177.831 341.078 178.033 341.28 178.277 341.42L386.306 461.431C386.987 461.823 387.759 462.03 388.545 462.03C389.332 462.03 390.104 461.823 390.785 461.431L465.004 418.632C465.241 418.488 465.437 418.284 465.572 418.041C465.706 417.797 465.775 417.523 465.772 417.245C465.768 416.968 465.692 416.695 465.552 416.456C465.411 416.216 465.21 416.017 464.969 415.878Z" fill="#ADB1F2"/>
<path d="M464.969 418.65L464.229 419.08L256.837 299.431C256.158 299.033 255.384 298.824 254.597 298.824C253.81 298.824 253.037 299.033 252.357 299.431L178.983 341.851L178.242 341.42C177.999 341.28 177.797 341.078 177.657 340.834C177.516 340.591 177.442 340.315 177.442 340.035C177.442 339.754 177.516 339.478 177.657 339.235C177.797 338.991 177.999 338.789 178.242 338.649L252.323 295.799C253.005 295.409 253.777 295.205 254.563 295.205C255.348 295.205 256.12 295.409 256.802 295.799L464.935 415.878C465.18 416.016 465.384 416.215 465.528 416.457C465.671 416.698 465.749 416.973 465.752 417.254C465.756 417.535 465.685 417.812 465.548 418.057C465.41 418.302 465.211 418.506 464.969 418.65Z" fill="#9198DB"/>
<path d="M246.776 306.645L427.568 410.954L435.596 406.323L254.804 302.014L246.776 306.645Z" fill="#24126A"/>
<path d="M227.067 318.024L396.643 415.861L404.671 411.213L235.095 313.376L227.067 318.024Z" fill="#24126A"/>
<path d="M214.233 325.427L413.889 440.617L421.917 435.986L222.261 320.796L214.233 325.427Z" fill="#24126A"/>
<path d="M201.397 332.83L401.054 448.02L409.082 443.389L209.425 328.199L201.397 332.83Z" fill="#24126A"/>
<path d="M188.563 340.233L388.219 455.422L396.247 450.791L196.591 335.602L188.563 340.233Z" fill="#24126A"/>
<path d="M438.491 417.255L446.519 421.904L454.564 417.255L446.519 412.624L438.491 417.255Z" fill="#24126A"/>
<path d="M410.133 423.642L426.827 433.266L434.855 428.635L418.178 418.994L410.133 423.642Z" fill="#24126A"/>
<path d="M248.826 444.938L192.714 412.555C190.509 411.299 190.509 409.25 192.714 407.976L231.081 385.837C232.31 385.208 233.671 384.88 235.052 384.88C236.433 384.88 237.794 385.208 239.023 385.837L295.152 418.219C297.34 419.476 297.34 421.525 295.152 422.799L256.768 444.938C255.536 445.557 254.176 445.88 252.797 445.88C251.418 445.88 250.058 445.557 248.826 444.938Z" fill="url(#paint22_linear)"/>
<path d="M295.152 420.096L239.023 387.713C237.794 387.085 236.433 386.757 235.052 386.757C233.671 386.757 232.31 387.085 231.081 387.713L192.714 409.853C192.134 410.165 191.655 410.637 191.336 411.213C190.75 410.094 191.198 408.854 192.714 407.976L231.081 385.837C232.31 385.208 233.671 384.88 235.052 384.88C236.433 384.88 237.794 385.208 239.023 385.837L295.152 418.219C296.668 419.08 297.099 420.337 296.53 421.439C296.208 420.869 295.73 420.404 295.152 420.096Z" fill="#9198DB"/>
<g opacity="0.11">
<g opacity="0.11">
<path opacity="0.11" d="M252.514 273.815L502.976 418.305C504.383 419.088 505.954 419.532 507.563 419.601C509.172 419.67 510.775 419.362 512.244 418.701L661.698 332.468C664.076 331.091 663.783 328.698 661.026 327.131L410.633 182.623C409.224 181.843 407.653 181.402 406.044 181.337C404.434 181.271 402.832 181.582 401.364 182.245L251.911 268.478C249.533 269.838 249.826 272.231 252.514 273.815Z" fill="url(#paint23_linear)"/>
<path opacity="0.11" d="M503.769 299.724L447.657 267.428C447.174 267.269 446.754 266.962 446.456 266.551C446.158 266.14 445.998 265.645 445.998 265.138C445.998 264.63 446.158 264.136 446.456 263.725C446.754 263.313 447.174 263.007 447.657 262.848L486.024 240.709C487.256 240.08 488.62 239.752 490.003 239.752C491.387 239.752 492.751 240.08 493.983 240.709L550.095 273.092C552.283 274.348 552.283 276.397 550.095 277.671L511.711 299.81C510.472 300.416 509.109 300.724 507.73 300.709C506.35 300.694 504.994 300.357 503.769 299.724Z" fill="url(#paint24_linear)"/>
<path opacity="0.11" d="M550.094 274.865L493.982 242.499C492.75 241.871 491.386 241.543 490.002 241.543C488.619 241.543 487.255 241.871 486.023 242.499L447.656 264.639C447.082 264.952 446.605 265.416 446.277 265.981C445.692 264.88 446.14 263.64 447.656 262.762L486.023 240.623C487.255 239.994 488.619 239.666 490.002 239.666C491.386 239.666 492.75 239.994 493.982 240.623L550.094 273.005C551.61 273.866 552.058 275.123 551.472 276.225C551.152 275.649 550.674 275.177 550.094 274.865Z" fill="#9198DB"/>
<path opacity="0.11" d="M574.764 350.321L366.632 230.242C365.951 229.849 365.178 229.642 364.392 229.642C363.606 229.642 362.833 229.849 362.152 230.242L288.072 273.092C287.828 273.232 287.626 273.434 287.486 273.677C287.346 273.921 287.272 274.197 287.272 274.477C287.272 274.758 287.346 275.034 287.486 275.277C287.626 275.521 287.828 275.723 288.072 275.863L496.101 395.873C496.78 396.271 497.553 396.481 498.34 396.481C499.128 396.481 499.901 396.271 500.58 395.873L574.799 353.093C575.04 352.949 575.24 352.744 575.377 352.499C575.514 352.254 575.585 351.978 575.581 351.697C575.578 351.416 575.501 351.141 575.357 350.9C575.214 350.658 575.009 350.458 574.764 350.321Z" fill="#ADB1F2"/>
<path opacity="0.11" d="M574.765 353.093L574.024 353.523L366.632 233.874C365.953 233.476 365.18 233.267 364.392 233.267C363.605 233.267 362.832 233.476 362.153 233.874L288.778 276.294L288.037 275.863C287.794 275.723 287.592 275.521 287.452 275.277C287.311 275.034 287.237 274.758 287.237 274.477C287.237 274.197 287.311 273.921 287.452 273.677C287.592 273.434 287.794 273.232 288.037 273.092L362.118 230.242C362.799 229.849 363.572 229.642 364.358 229.642C365.144 229.642 365.917 229.849 366.597 230.242L574.73 350.321C574.975 350.458 575.18 350.658 575.323 350.9C575.467 351.141 575.544 351.416 575.547 351.697C575.551 351.978 575.48 352.254 575.343 352.499C575.206 352.744 575.006 352.949 574.765 353.093Z" fill="#9198DB"/>
<path opacity="0.11" d="M307.437 270.165L488.745 374.767L481.578 378.916L300.253 274.314L307.437 270.165Z" fill="#24126A"/>
<path opacity="0.11" d="M326.542 259.147L498.875 358.567L491.691 362.716L319.358 263.296L326.542 259.147Z" fill="#24126A"/>
<path opacity="0.11" d="M511.745 366.004L527.853 375.284L520.669 379.432L504.561 370.136L511.745 366.004Z" fill="#24126A"/>
<path opacity="0.11" d="M497.531 379.846L508.747 386.302L501.563 390.451L490.347 383.977L497.531 379.846Z" fill="#24126A"/>
<path opacity="0.11" d="M338.515 252.243L539.809 368.38L532.642 372.529L331.331 256.375L338.515 252.243Z" fill="#24126A"/>
<path opacity="0.11" d="M350.489 245.34L551.783 361.477L544.598 365.626L343.305 249.472L350.489 245.34Z" fill="#24126A"/>
<path opacity="0.11" d="M362.446 238.419L563.756 354.573L556.572 358.705L355.261 242.568L362.446 238.419Z" fill="#24126A"/>
</g>
</g>
<path opacity="0.7" d="M328.971 162.085L309.331 277.223L465.917 367.554L485.54 252.416L328.971 162.085Z" fill="#24126A"/>
<path opacity="0.7" d="M458.199 353.437L301.613 263.089L321.253 147.968L477.839 238.299L458.199 353.437Z" fill="url(#paint25_radial)"/>
<path opacity="0.7" d="M321.253 147.968L387.616 263.089L477.84 238.299L321.253 147.968Z" fill="url(#paint26_linear)"/>
<path opacity="0.7" d="M458.199 353.437L391.836 238.316L301.613 263.089L458.199 353.437Z" fill="url(#paint27_linear)"/>
<g style="mix-blend-mode:lighten">
<path d="M620.574 511.046C619.592 511.067 618.621 510.842 617.748 510.392L554.418 473.843C554.051 473.671 553.738 473.402 553.514 473.065C553.289 472.728 553.161 472.337 553.143 471.932C553.199 471.425 553.388 470.942 553.691 470.531C553.993 470.12 554.398 469.796 554.866 469.591L617.352 433.541C618.322 432.991 619.41 432.68 620.525 432.635C621.64 432.59 622.749 432.812 623.761 433.283L687.091 469.832C687.458 470.004 687.77 470.273 687.995 470.61C688.22 470.947 688.348 471.338 688.366 471.743C688.311 472.25 688.123 472.734 687.82 473.145C687.518 473.557 687.112 473.88 686.643 474.084L624.14 510.168C623.044 510.755 621.817 511.057 620.574 511.046ZM618.248 509.531C619.107 509.911 620.042 510.087 620.981 510.045C621.919 510.004 622.836 509.745 623.657 509.29L686.144 473.241C686.454 473.111 686.726 472.906 686.937 472.645C687.148 472.383 687.289 472.073 687.35 471.743C687.32 471.514 687.234 471.297 687.098 471.11C686.963 470.924 686.783 470.774 686.574 470.675L623.227 434.144C622.356 433.758 621.406 433.581 620.454 433.629C619.503 433.677 618.576 433.948 617.748 434.419L555.262 470.469C554.952 470.598 554.679 470.803 554.468 471.065C554.258 471.326 554.116 471.636 554.056 471.967C554.079 472.197 554.163 472.417 554.299 472.605C554.435 472.793 554.619 472.941 554.831 473.034L618.248 509.531Z" fill="#8686F2"/>
</g>
<path d="M687.849 445.093V452.857L620.573 491.661L553.315 452.857V445.093H687.849Z" fill="url(#paint28_linear)"/>
<path d="M620.573 483.897L553.315 445.093L620.573 406.289L687.849 445.093L620.573 483.897Z" fill="#BCBEFF"/>
<path d="M620.573 483.002L554.09 444.645L553.315 445.093L620.573 483.897L687.849 445.093L687.056 444.645L620.573 483.002Z" fill="white"/>
<path d="M620.574 474.945L568.838 445.093L620.574 415.258L672.31 445.11L620.574 474.945Z" fill="#0F054C"/>
<path opacity="0.5" d="M620.574 474.945L568.838 445.093L620.574 415.258L672.328 445.11L620.574 474.945Z" fill="url(#paint29_linear)"/>
<path opacity="0.5" d="M620.574 407.718L672.327 437.57V445.11L620.574 415.258V407.718Z" fill="url(#paint30_linear)"/>
<path opacity="0.5" d="M620.574 415.258L568.838 445.093V437.57L620.574 407.718V415.258Z" fill="url(#paint31_linear)"/>
<path opacity="0.5" d="M620.574 467.422L568.838 437.57L620.574 407.718L672.328 437.57L620.574 467.422Z" fill="url(#paint32_linear)"/>
<path opacity="0.5" d="M620.574 449.5L599.9 437.57L620.574 425.639L641.248 437.57L620.574 449.5Z" fill="#42E8E0"/>
<path opacity="0.5" d="M620.574 426.741L640.3 438.121L641.248 437.57L620.574 425.639L599.9 437.57L600.848 438.121L620.574 426.741Z" fill="#42E8E0"/>
<path opacity="0.5" d="M620.574 467.422V474.945L672.327 445.11V437.57L620.574 467.422Z" fill="url(#paint33_linear)"/>
<path opacity="0.5" d="M568.838 437.57V445.093L620.574 474.945V467.422L568.838 437.57Z" fill="url(#paint34_linear)"/>
<path opacity="0.8" d="M620.574 466.595L569.562 437.157L568.838 437.57L620.574 467.422L672.328 437.57L671.604 437.157L620.574 466.595Z" fill="#42E8E0"/>
<g style="mix-blend-mode:lighten">
<path d="M538.069 561.023C537.092 561.052 536.124 560.827 535.261 560.369L471.913 523.82C471.551 523.644 471.243 523.374 471.022 523.037C470.8 522.701 470.674 522.311 470.656 521.909C470.709 521.401 470.896 520.916 471.199 520.505C471.502 520.093 471.909 519.77 472.378 519.568L534.865 483.518C535.833 482.972 536.918 482.663 538.029 482.618C539.141 482.573 540.247 482.793 541.256 483.26L604.604 519.809C604.969 519.983 605.281 520.252 605.506 520.588C605.73 520.925 605.859 521.316 605.879 521.72C605.824 522.227 605.636 522.711 605.333 523.122C605.031 523.534 604.624 523.857 604.156 524.061L541.653 560.093C540.556 560.701 539.323 561.021 538.069 561.023ZM535.743 559.525C536.608 559.898 537.546 560.068 538.487 560.024C539.427 559.979 540.345 559.72 541.17 559.267L603.657 523.218C603.967 523.088 604.239 522.883 604.45 522.622C604.66 522.36 604.802 522.05 604.862 521.72C604.833 521.491 604.746 521.274 604.611 521.087C604.476 520.901 604.295 520.751 604.087 520.652L540.74 484.121C539.88 483.745 538.945 483.571 538.007 483.612C537.069 483.654 536.153 483.911 535.33 484.362L472.826 520.497C472.521 520.63 472.252 520.837 472.045 521.098C471.837 521.359 471.698 521.667 471.638 521.995C471.661 522.226 471.745 522.446 471.881 522.634C472.017 522.821 472.201 522.969 472.413 523.063L535.743 559.525Z" fill="#8686F2"/>
</g>
<path d="M605.362 495.07V502.834L538.086 541.655L470.827 502.834V495.07H605.362Z" fill="url(#paint35_linear)"/>
<path d="M538.086 533.874L470.827 495.07L538.086 456.266L605.362 495.07L538.086 533.874Z" fill="#BCBEFF"/>
<path d="M538.086 532.979L471.603 494.622L470.827 495.07L538.086 533.874L605.362 495.07L604.569 494.622L538.086 532.979Z" fill="white"/>
<path d="M538.086 524.922L486.35 495.07L538.086 465.235L589.822 495.087L538.086 524.922Z" fill="#0F054C"/>
<path opacity="0.5" d="M538.086 524.922L486.35 495.07L538.086 465.235L589.822 495.087L538.086 524.922Z" fill="url(#paint36_linear)"/>
<path opacity="0.5" d="M538.085 457.712L589.821 487.547V495.087L538.085 465.235V457.712Z" fill="url(#paint37_linear)"/>
<path opacity="0.5" d="M538.086 465.235L486.35 495.07V487.547L538.086 457.712V465.235Z" fill="url(#paint38_linear)"/>
<path opacity="0.5" d="M538.086 517.399L486.35 487.547L538.086 457.712L589.822 487.547L538.086 517.399Z" fill="url(#paint39_linear)"/>
<path opacity="0.5" d="M538.085 499.477L517.411 487.547L538.085 475.616L558.759 487.547L538.085 499.477Z" fill="#42E8E0"/>
<path opacity="0.5" d="M538.085 476.718L557.811 488.098L558.759 487.547L538.085 475.616L517.411 487.547L518.359 488.098L538.085 476.718Z" fill="#42E8E0"/>
<path opacity="0.5" d="M538.085 517.399V524.922L589.821 495.087V487.547L538.085 517.399Z" fill="url(#paint40_linear)"/>
<path opacity="0.5" d="M486.35 487.547V495.07L538.086 524.922V517.399L486.35 487.547Z" fill="url(#paint41_linear)"/>
<path opacity="0.8" d="M538.086 516.572L487.056 487.134L486.35 487.547L538.086 517.399L589.822 487.547L589.116 487.134L538.086 516.572Z" fill="#42E8E0"/>
<g style="mix-blend-mode:lighten">
<path d="M455.581 611C454.603 611.031 453.635 610.805 452.772 610.346L389.425 573.866C389.061 573.695 388.75 573.429 388.525 573.095C388.301 572.762 388.171 572.374 388.15 571.972C388.204 571.462 388.391 570.975 388.694 570.561C388.996 570.147 389.403 569.82 389.873 569.614L452.359 533.495C453.325 532.942 454.412 532.631 455.525 532.589C456.638 532.547 457.745 532.775 458.75 533.254L522.098 569.786C522.459 569.963 522.766 570.234 522.987 570.57C523.209 570.906 523.336 571.295 523.356 571.697C523.306 572.206 523.12 572.692 522.817 573.104C522.514 573.516 522.105 573.839 521.633 574.038L459.25 610.105C458.127 610.72 456.861 611.029 455.581 611ZM453.255 609.502C454.116 609.876 455.052 610.047 455.99 610.002C456.928 609.957 457.843 609.698 458.664 609.244L521.168 573.194C521.474 573.061 521.742 572.855 521.95 572.594C522.157 572.333 522.297 572.025 522.357 571.697C522.336 571.467 522.253 571.248 522.116 571.063C521.979 570.878 521.794 570.734 521.581 570.647L458.251 534.098C457.388 533.721 456.45 533.547 455.509 533.589C454.569 533.631 453.65 533.887 452.824 534.339L390.338 570.423C389.58 570.87 389.132 571.421 389.132 571.938C389.161 572.164 389.248 572.379 389.383 572.563C389.519 572.747 389.699 572.893 389.907 572.988L453.255 609.502Z" fill="#8686F2"/>
</g>
<path d="M522.856 545.047V552.811L455.598 591.632L388.322 552.811V545.047H522.856Z" fill="url(#paint42_linear)"/>
<path d="M455.598 583.851L388.322 545.047L455.598 506.243L522.856 545.047L455.598 583.851Z" fill="#BCBEFF"/>
<path d="M455.598 582.956L389.114 544.599L388.322 545.047L455.598 583.851L522.856 545.047L522.081 544.599L455.598 582.956Z" fill="white"/>
<path d="M455.597 574.899L403.861 545.064L455.597 515.212L507.333 545.064L455.597 574.899Z" fill="#0F054C"/>
<path opacity="0.5" d="M455.597 574.899L403.861 545.064L455.597 515.212L507.333 545.064L455.597 574.899Z" fill="url(#paint43_linear)"/>
<path opacity="0.5" d="M455.598 507.689L507.334 537.541V545.064L455.598 515.212V507.689Z" fill="url(#paint44_linear)"/>
<path opacity="0.5" d="M455.597 515.212L403.861 545.064V537.524L455.597 507.689V515.212Z" fill="url(#paint45_linear)"/>
<path opacity="0.5" d="M455.597 567.376L403.861 537.524L455.597 507.689L507.333 537.541L455.597 567.376Z" fill="url(#paint46_linear)"/>
<path opacity="0.5" d="M455.598 549.454L434.925 537.524L455.598 525.61L476.272 537.541L455.598 549.454Z" fill="#42E8E0"/>
<path opacity="0.5" d="M455.598 526.695L475.307 538.075L476.272 537.541L455.598 525.61L434.925 537.524L435.872 538.075L455.598 526.695Z" fill="#42E8E0"/>
<path opacity="0.5" d="M455.598 567.376V574.899L507.334 545.064V537.541L455.598 567.376Z" fill="url(#paint47_linear)"/>
<path opacity="0.5" d="M403.861 537.524V545.064L455.597 574.899V567.376L403.861 537.524Z" fill="url(#paint48_linear)"/>
<path opacity="0.8" d="M455.597 566.566L404.567 537.128L403.861 537.524L455.597 567.376L507.333 537.541L506.627 537.128L455.597 566.566Z" fill="#42E8E0"/>
</g>
<defs>
<radialGradient id="paint0_radial" cx="0" cy="0" r="1" gradientUnits="userSpaceOnUse" gradientTransform="translate(467.071 436.408) rotate(29.8686) scale(199.306 172.145)">
<stop stop-color="#42E8E0"/>
<stop offset="0.15" stop-color="#33AEB9"/>
<stop offset="0.31" stop-color="#267A95"/>
<stop offset="0.47" stop-color="#1B5078"/>
<stop offset="0.62" stop-color="#132E61"/>
<stop offset="0.76" stop-color="#0D1651"/>
<stop offset="0.89" stop-color="#090847"/>
<stop offset="1" stop-color="#080344"/>
</radialGradient>
<linearGradient id="paint1_linear" x1="230.314" y1="318.385" x2="156.14" y2="372.453" gradientUnits="userSpaceOnUse">
<stop stop-color="#42E8E0"/>
<stop offset="0.15" stop-color="#43E3E0"/>
<stop offset="0.33" stop-color="#45D5DF"/>
<stop offset="0.52" stop-color="#49BDDD"/>
<stop offset="0.72" stop-color="#4E9CDB"/>
<stop offset="0.93" stop-color="#5472D8"/>
<stop offset="1" stop-color="#5761D7"/>
</linearGradient>
<linearGradient id="paint2_linear" x1="35823" y1="15629.6" x2="39406.4" y2="14254.5" gradientUnits="userSpaceOnUse">
<stop stop-color="#42E8E0"/>
<stop offset="0.15" stop-color="#43E3E0"/>
<stop offset="0.33" stop-color="#45D5DF"/>
<stop offset="0.52" stop-color="#49BDDD"/>
<stop offset="0.72" stop-color="#4E9CDB"/>
<stop offset="0.93" stop-color="#5472D8"/>
<stop offset="1" stop-color="#5761D7"/>
</linearGradient>
<linearGradient id="paint3_linear" x1="16919.9" y1="13912.9" x2="20060.1" y2="13173.6" gradientUnits="userSpaceOnUse">
<stop stop-color="#42E8E0"/>
<stop offset="0.15" stop-color="#43E3E0"/>
<stop offset="0.33" stop-color="#45D5DF"/>
<stop offset="0.52" stop-color="#49BDDD"/>
<stop offset="0.72" stop-color="#4E9CDB"/>
<stop offset="0.93" stop-color="#5472D8"/>
<stop offset="1" stop-color="#5761D7"/>
</linearGradient>
<linearGradient id="paint4_linear" x1="5328.23" y1="12154.6" x2="8151.76" y2="11766.1" gradientUnits="userSpaceOnUse">
<stop stop-color="#42E8E0"/>
<stop offset="0.15" stop-color="#43E3E0"/>
<stop offset="0.33" stop-color="#45D5DF"/>
<stop offset="0.52" stop-color="#49BDDD"/>
<stop offset="0.72" stop-color="#4E9CDB"/>
<stop offset="0.93" stop-color="#5472D8"/>
<stop offset="1" stop-color="#5761D7"/>
</linearGradient>
<linearGradient id="paint5_linear" x1="9875.54" y1="8151.6" x2="11783.6" y2="7758.61" gradientUnits="userSpaceOnUse">
<stop stop-color="#42E8E0"/>
<stop offset="0.15" stop-color="#43E3E0"/>
<stop offset="0.33" stop-color="#45D5DF"/>
<stop offset="0.52" stop-color="#49BDDD"/>
<stop offset="0.72" stop-color="#4E9CDB"/>
<stop offset="0.93" stop-color="#5472D8"/>
<stop offset="1" stop-color="#5761D7"/>
</linearGradient>
<linearGradient id="paint6_linear" x1="20746.3" y1="3961.15" x2="22358.4" y2="3336.69" gradientUnits="userSpaceOnUse">
<stop stop-color="#42E8E0"/>
<stop offset="0.15" stop-color="#43E3E0"/>
<stop offset="0.33" stop-color="#45D5DF"/>
<stop offset="0.52" stop-color="#49BDDD"/>
<stop offset="0.72" stop-color="#4E9CDB"/>
<stop offset="0.93" stop-color="#5472D8"/>
<stop offset="1" stop-color="#5761D7"/>
</linearGradient>
<linearGradient id="paint7_linear" x1="42992.1" y1="-8675.95" x2="39316.4" y2="-6194.17" gradientUnits="userSpaceOnUse">
<stop stop-color="#42E8E0"/>
<stop offset="0.15" stop-color="#43E3E0"/>
<stop offset="0.33" stop-color="#45D5DF"/>
<stop offset="0.52" stop-color="#49BDDD"/>
<stop offset="0.72" stop-color="#4E9CDB"/>
<stop offset="0.93" stop-color="#5472D8"/>
<stop offset="1" stop-color="#5761D7"/>
</linearGradient>
<linearGradient id="paint8_linear" x1="21645" y1="468.372" x2="18713.1" y2="1870.2" gradientUnits="userSpaceOnUse">
<stop stop-color="#42E8E0"/>
<stop offset="0.15" stop-color="#43E3E0"/>
<stop offset="0.33" stop-color="#45D5DF"/>
<stop offset="0.52" stop-color="#49BDDD"/>
<stop offset="0.72" stop-color="#4E9CDB"/>
<stop offset="0.93" stop-color="#5472D8"/>
<stop offset="1" stop-color="#5761D7"/>
</linearGradient>
<linearGradient id="paint9_linear" x1="4840.86" y1="5091.38" x2="2449.07" y2="5814.42" gradientUnits="userSpaceOnUse">
<stop stop-color="#42E8E0"/>
<stop offset="0.15" stop-color="#43E3E0"/>
<stop offset="0.33" stop-color="#45D5DF"/>
<stop offset="0.52" stop-color="#49BDDD"/>
<stop offset="0.72" stop-color="#4E9CDB"/>
<stop offset="0.93" stop-color="#5472D8"/>
<stop offset="1" stop-color="#5761D7"/>
</linearGradient>
<linearGradient id="paint10_linear" x1="-22239.5" y1="5611.89" x2="-24202.6" y2="5592.24" gradientUnits="userSpaceOnUse">
<stop stop-color="#42E8E0"/>
<stop offset="0.15" stop-color="#43E3E0"/>
<stop offset="0.33" stop-color="#45D5DF"/>
<stop offset="0.52" stop-color="#49BDDD"/>
<stop offset="0.72" stop-color="#4E9CDB"/>
<stop offset="0.93" stop-color="#5472D8"/>
<stop offset="1" stop-color="#5761D7"/>
</linearGradient>
<linearGradient id="paint11_linear" x1="-79055" y1="-14600.3" x2="-79279.9" y2="-15320.5" gradientUnits="userSpaceOnUse">
<stop stop-color="#42E8E0"/>
<stop offset="0.15" stop-color="#43E3E0"/>
<stop offset="0.33" stop-color="#45D5DF"/>
<stop offset="0.52" stop-color="#49BDDD"/>
<stop offset="0.72" stop-color="#4E9CDB"/>
<stop offset="0.93" stop-color="#5472D8"/>
<stop offset="1" stop-color="#5761D7"/>
</linearGradient>
<linearGradient id="paint12_linear" x1="-149877" y1="11560.5" x2="-178873" y2="5342.66" gradientUnits="userSpaceOnUse">
<stop stop-color="#42E8E0"/>
<stop offset="0.15" stop-color="#43E3E0"/>
<stop offset="0.33" stop-color="#45D5DF"/>
<stop offset="0.52" stop-color="#49BDDD"/>
<stop offset="0.72" stop-color="#4E9CDB"/>
<stop offset="0.93" stop-color="#5472D8"/>
<stop offset="1" stop-color="#5761D7"/>
</linearGradient>
<linearGradient id="paint13_linear" x1="-92963.8" y1="92420.3" x2="-77261.3" y2="98903.5" gradientUnits="userSpaceOnUse">
<stop stop-color="#42E8E0"/>
<stop offset="0.15" stop-color="#43E3E0"/>
<stop offset="0.33" stop-color="#45D5DF"/>
<stop offset="0.52" stop-color="#49BDDD"/>
<stop offset="0.72" stop-color="#4E9CDB"/>
<stop offset="0.93" stop-color="#5472D8"/>
<stop offset="1" stop-color="#5761D7"/>
</linearGradient>
<linearGradient id="paint14_linear" x1="-91334.9" y1="91462.3" x2="-76533.9" y2="97573.3" gradientUnits="userSpaceOnUse">
<stop stop-color="#42E8E0"/>
<stop offset="0.15" stop-color="#43E3E0"/>
<stop offset="0.33" stop-color="#45D5DF"/>
<stop offset="0.52" stop-color="#49BDDD"/>
<stop offset="0.72" stop-color="#4E9CDB"/>
<stop offset="0.93" stop-color="#5472D8"/>
<stop offset="1" stop-color="#5761D7"/>
</linearGradient>
<linearGradient id="paint15_linear" x1="16152.2" y1="55247.9" x2="22215.1" y2="56001.4" gradientUnits="userSpaceOnUse">
<stop stop-color="#42E8E0"/>
<stop offset="0.15" stop-color="#43E3E0"/>
<stop offset="0.33" stop-color="#45D5DF"/>
<stop offset="0.52" stop-color="#49BDDD"/>
<stop offset="0.72" stop-color="#4E9CDB"/>
<stop offset="0.93" stop-color="#5472D8"/>
<stop offset="1" stop-color="#5761D7"/>
</linearGradient>
<linearGradient id="paint16_linear" x1="15906.8" y1="54843.9" x2="21545.2" y2="55544.7" gradientUnits="userSpaceOnUse">
<stop stop-color="#42E8E0"/>
<stop offset="0.15" stop-color="#43E3E0"/>
<stop offset="0.33" stop-color="#45D5DF"/>
<stop offset="0.52" stop-color="#49BDDD"/>
<stop offset="0.72" stop-color="#4E9CDB"/>
<stop offset="0.93" stop-color="#5472D8"/>
<stop offset="1" stop-color="#5761D7"/>
</linearGradient>
<linearGradient id="paint17_linear" x1="544.616" y1="246.597" x2="252.306" y2="246.597" gradientUnits="userSpaceOnUse">
<stop stop-color="#C0BFF6"/>
<stop offset="0.29" stop-color="#C5C4F7"/>
<stop offset="0.64" stop-color="#D3D2F9"/>
<stop offset="1" stop-color="#E9E9FD"/>
</linearGradient>
<linearGradient id="paint18_linear" x1="544.615" y1="321.502" x2="494.43" y2="321.502" gradientUnits="userSpaceOnUse">
<stop stop-color="#5761D7"/>
<stop offset="0.18" stop-color="#5C66D9"/>
<stop offset="0.39" stop-color="#6A73DF"/>
<stop offset="0.61" stop-color="#8289E8"/>
<stop offset="0.85" stop-color="#A3A7F5"/>
<stop offset="1" stop-color="#BCBEFF"/>
</linearGradient>
<linearGradient id="paint19_linear" x1="173617" y1="70440.4" x2="73762.5" y2="70440.4" gradientUnits="userSpaceOnUse">
<stop stop-color="#42E8E0"/>
<stop offset="0.15" stop-color="#43E3E0"/>
<stop offset="0.33" stop-color="#45D5DF"/>
<stop offset="0.52" stop-color="#49BDDD"/>
<stop offset="0.72" stop-color="#4E9CDB"/>
<stop offset="0.93" stop-color="#5472D8"/>
<stop offset="1" stop-color="#5761D7"/>
</linearGradient>
<linearGradient id="paint20_linear" x1="-855593" y1="65450.3" x2="-756673" y2="65450.3" gradientUnits="userSpaceOnUse">
<stop stop-color="#5761D7"/>
<stop offset="0.18" stop-color="#5C66D9"/>
<stop offset="0.39" stop-color="#6A73DF"/>
<stop offset="0.61" stop-color="#8289E8"/>
<stop offset="0.85" stop-color="#A3A7F5"/>
<stop offset="1" stop-color="#BCBEFF"/>
</linearGradient>
<linearGradient id="paint21_linear" x1="-822854" y1="65166.3" x2="-723825" y2="65166.3" gradientUnits="userSpaceOnUse">
<stop stop-color="#C0BFF6"/>
<stop offset="0.29" stop-color="#C5C4F7"/>
<stop offset="0.64" stop-color="#D3D2F9"/>
<stop offset="1" stop-color="#E9E9FD"/>
</linearGradient>
<linearGradient id="paint22_linear" x1="-206174" y1="17827" x2="-199685" y2="17827" gradientUnits="userSpaceOnUse">
<stop stop-color="#C0BFF6"/>
<stop offset="0.29" stop-color="#C5C4F7"/>
<stop offset="0.64" stop-color="#D3D2F9"/>
<stop offset="1" stop-color="#E9E9FD"/>
</linearGradient>
<linearGradient id="paint23_linear" x1="-860435" y1="52410.4" x2="-761416" y2="52410.4" gradientUnits="userSpaceOnUse">
<stop stop-color="#C0BFF6"/>
<stop offset="0.29" stop-color="#C5C4F7"/>
<stop offset="0.64" stop-color="#D3D2F9"/>
<stop offset="1" stop-color="#E9E9FD"/>
</linearGradient>
<linearGradient id="paint24_linear" x1="-221575" y1="12528.1" x2="-215086" y2="12528.1" gradientUnits="userSpaceOnUse">
<stop stop-color="#C0BFF6"/>
<stop offset="0.29" stop-color="#C5C4F7"/>
<stop offset="0.64" stop-color="#D3D2F9"/>
<stop offset="1" stop-color="#E9E9FD"/>
</linearGradient>
<radialGradient id="paint25_radial" cx="0" cy="0" r="1" gradientUnits="userSpaceOnUse" gradientTransform="translate(-52484.4 53396.9) rotate(30.1933) scale(21696.2 23997.5)">
<stop stop-color="#42E8E0"/>
<stop offset="0.15" stop-color="#43E3E0"/>
<stop offset="0.33" stop-color="#45D5DF"/>
<stop offset="0.52" stop-color="#49BDDD"/>
<stop offset="0.72" stop-color="#4E9CDB"/>
<stop offset="0.93" stop-color="#5472D8"/>
<stop offset="1" stop-color="#5761D7"/>
</radialGradient>
<linearGradient id="paint26_linear" x1="-49114" y1="69707.9" x2="-33878.5" y2="72321.6" gradientUnits="userSpaceOnUse">
<stop stop-color="#42E8E0"/>
<stop offset="0.15" stop-color="#43E3E0"/>
<stop offset="0.33" stop-color="#45D5DF"/>
<stop offset="0.52" stop-color="#49BDDD"/>
<stop offset="0.72" stop-color="#4E9CDB"/>
<stop offset="0.93" stop-color="#5472D8"/>
<stop offset="1" stop-color="#5761D7"/>
</linearGradient>
<linearGradient id="paint27_linear" x1="465.257" y1="313.268" x2="297.616" y2="284.509" gradientUnits="userSpaceOnUse">
<stop stop-color="#5761D7"/>
<stop offset="0.07" stop-color="#5472D8"/>
<stop offset="0.28" stop-color="#4E9CDB"/>
<stop offset="0.48" stop-color="#49BDDD"/>
<stop offset="0.67" stop-color="#45D5DF"/>
<stop offset="0.85" stop-color="#43E3E0"/>
<stop offset="1" stop-color="#42E8E0"/>
</linearGradient>
<linearGradient id="paint28_linear" x1="520.047" y1="468.386" x2="692.449" y2="468.386" gradientUnits="userSpaceOnUse">
<stop stop-color="#5761D7"/>
<stop offset="0.16" stop-color="#5E67DA"/>
<stop offset="0.41" stop-color="#727AE2"/>
<stop offset="0.69" stop-color="#9297EE"/>
<stop offset="1" stop-color="#BCBEFF"/>
</linearGradient>
<linearGradient id="paint29_linear" x1="34738.9" y1="15846.6" x2="40954.4" y2="15846.6" gradientUnits="userSpaceOnUse">
<stop stop-color="#42E8E0"/>
<stop offset="0.15" stop-color="#43E3E0"/>
<stop offset="0.33" stop-color="#45D5DF"/>
<stop offset="0.52" stop-color="#49BDDD"/>
<stop offset="0.72" stop-color="#4E9CDB"/>
<stop offset="0.93" stop-color="#5472D8"/>
<stop offset="1" stop-color="#5761D7"/>
</linearGradient>
<linearGradient id="paint30_linear" x1="19262.6" y1="9669.43" x2="20816.7" y2="9669.43" gradientUnits="userSpaceOnUse">
<stop stop-color="#42E8E0"/>
<stop offset="0.15" stop-color="#43E3E0"/>
<stop offset="0.33" stop-color="#45D5DF"/>
<stop offset="0.52" stop-color="#49BDDD"/>
<stop offset="0.72" stop-color="#4E9CDB"/>
<stop offset="0.93" stop-color="#5472D8"/>
<stop offset="1" stop-color="#5761D7"/>
</linearGradient>
<linearGradient id="paint31_linear" x1="17651" y1="9665.17" x2="19204.6" y2="9665.17" gradientUnits="userSpaceOnUse">
<stop stop-color="#42E8E0"/>
<stop offset="0.15" stop-color="#43E3E0"/>
<stop offset="0.33" stop-color="#45D5DF"/>
<stop offset="0.52" stop-color="#49BDDD"/>
<stop offset="0.72" stop-color="#4E9CDB"/>
<stop offset="0.93" stop-color="#5472D8"/>
<stop offset="1" stop-color="#5761D7"/>
</linearGradient>
<linearGradient id="paint32_linear" x1="34738.9" y1="15582.6" x2="40954.4" y2="15582.6" gradientUnits="userSpaceOnUse">
<stop stop-color="#42E8E0"/>
<stop offset="0.15" stop-color="#43E3E0"/>
<stop offset="0.33" stop-color="#45D5DF"/>
<stop offset="0.52" stop-color="#49BDDD"/>
<stop offset="0.72" stop-color="#4E9CDB"/>
<stop offset="0.93" stop-color="#5472D8"/>
<stop offset="1" stop-color="#5761D7"/>
</linearGradient>
<linearGradient id="paint33_linear" x1="19262.6" y1="10343.1" x2="20816.7" y2="10343.1" gradientUnits="userSpaceOnUse">
<stop stop-color="#42E8E0"/>
<stop offset="0.15" stop-color="#43E3E0"/>
<stop offset="0.33" stop-color="#45D5DF"/>
<stop offset="0.52" stop-color="#49BDDD"/>
<stop offset="0.72" stop-color="#4E9CDB"/>
<stop offset="0.93" stop-color="#5472D8"/>
<stop offset="1" stop-color="#5761D7"/>
</linearGradient>
<linearGradient id="paint34_linear" x1="17651" y1="10343.1" x2="19204.6" y2="10343.1" gradientUnits="userSpaceOnUse">
<stop stop-color="#42E8E0"/>
<stop offset="0.15" stop-color="#43E3E0"/>
<stop offset="0.33" stop-color="#45D5DF"/>
<stop offset="0.52" stop-color="#49BDDD"/>
<stop offset="0.72" stop-color="#4E9CDB"/>
<stop offset="0.93" stop-color="#5472D8"/>
<stop offset="1" stop-color="#5761D7"/>
</linearGradient>
<linearGradient id="paint35_linear" x1="34639.8" y1="14522" x2="48102.6" y2="14522" gradientUnits="userSpaceOnUse">
<stop stop-color="#5761D7"/>
<stop offset="0.16" stop-color="#5E67DA"/>
<stop offset="0.41" stop-color="#727AE2"/>
<stop offset="0.69" stop-color="#9297EE"/>
<stop offset="1" stop-color="#BCBEFF"/>
</linearGradient>
<linearGradient id="paint36_linear" x1="29696.5" y1="17629.9" x2="35911" y2="17629.9" gradientUnits="userSpaceOnUse">
<stop stop-color="#42E8E0"/>
<stop offset="0.15" stop-color="#43E3E0"/>
<stop offset="0.33" stop-color="#45D5DF"/>
<stop offset="0.52" stop-color="#49BDDD"/>
<stop offset="0.72" stop-color="#4E9CDB"/>
<stop offset="0.93" stop-color="#5472D8"/>
<stop offset="1" stop-color="#5761D7"/>
</linearGradient>
<linearGradient id="paint37_linear" x1="16696.8" y1="10800.2" x2="18250.4" y2="10800.2" gradientUnits="userSpaceOnUse">
<stop stop-color="#42E8E0"/>
<stop offset="0.15" stop-color="#43E3E0"/>
<stop offset="0.33" stop-color="#45D5DF"/>
<stop offset="0.52" stop-color="#49BDDD"/>
<stop offset="0.72" stop-color="#4E9CDB"/>
<stop offset="0.93" stop-color="#5472D8"/>
<stop offset="1" stop-color="#5761D7"/>
</linearGradient>
<linearGradient id="paint38_linear" x1="15091.4" y1="10795.4" x2="16645" y2="10795.4" gradientUnits="userSpaceOnUse">
<stop stop-color="#42E8E0"/>
<stop offset="0.15" stop-color="#43E3E0"/>
<stop offset="0.33" stop-color="#45D5DF"/>
<stop offset="0.52" stop-color="#49BDDD"/>
<stop offset="0.72" stop-color="#4E9CDB"/>
<stop offset="0.93" stop-color="#5472D8"/>
<stop offset="1" stop-color="#5761D7"/>
</linearGradient>
<linearGradient id="paint39_linear" x1="29696.5" y1="17361" x2="35911" y2="17361" gradientUnits="userSpaceOnUse">
<stop stop-color="#42E8E0"/>
<stop offset="0.15" stop-color="#43E3E0"/>
<stop offset="0.33" stop-color="#45D5DF"/>
<stop offset="0.52" stop-color="#49BDDD"/>
<stop offset="0.72" stop-color="#4E9CDB"/>
<stop offset="0.93" stop-color="#5472D8"/>
<stop offset="1" stop-color="#5761D7"/>
</linearGradient>
<linearGradient id="paint40_linear" x1="16696.8" y1="11478.1" x2="18250.4" y2="11478.1" gradientUnits="userSpaceOnUse">
<stop stop-color="#42E8E0"/>
<stop offset="0.15" stop-color="#43E3E0"/>
<stop offset="0.33" stop-color="#45D5DF"/>
<stop offset="0.52" stop-color="#49BDDD"/>
<stop offset="0.72" stop-color="#4E9CDB"/>
<stop offset="0.93" stop-color="#5472D8"/>
<stop offset="1" stop-color="#5761D7"/>
</linearGradient>
<linearGradient id="paint41_linear" x1="15091.4" y1="11478.1" x2="16645" y2="11478.1" gradientUnits="userSpaceOnUse">
<stop stop-color="#42E8E0"/>
<stop offset="0.15" stop-color="#43E3E0"/>
<stop offset="0.33" stop-color="#45D5DF"/>
<stop offset="0.52" stop-color="#49BDDD"/>
<stop offset="0.72" stop-color="#4E9CDB"/>
<stop offset="0.93" stop-color="#5472D8"/>
<stop offset="1" stop-color="#5761D7"/>
</linearGradient>
<linearGradient id="paint42_linear" x1="28115.8" y1="15924.3" x2="41577.3" y2="15924.3" gradientUnits="userSpaceOnUse">
<stop stop-color="#5761D7"/>
<stop offset="0.16" stop-color="#5E67DA"/>
<stop offset="0.41" stop-color="#727AE2"/>
<stop offset="0.69" stop-color="#9297EE"/>
<stop offset="1" stop-color="#BCBEFF"/>
</linearGradient>
<linearGradient id="paint43_linear" x1="24659.8" y1="19412.6" x2="30874.3" y2="19412.6" gradientUnits="userSpaceOnUse">
<stop stop-color="#42E8E0"/>
<stop offset="0.15" stop-color="#43E3E0"/>
<stop offset="0.33" stop-color="#45D5DF"/>
<stop offset="0.52" stop-color="#49BDDD"/>
<stop offset="0.72" stop-color="#4E9CDB"/>
<stop offset="0.93" stop-color="#5472D8"/>
<stop offset="1" stop-color="#5761D7"/>
</linearGradient>
<linearGradient id="paint44_linear" x1="14137.2" y1="11935.2" x2="15690.8" y2="11935.2" gradientUnits="userSpaceOnUse">
<stop stop-color="#42E8E0"/>
<stop offset="0.15" stop-color="#43E3E0"/>
<stop offset="0.33" stop-color="#45D5DF"/>
<stop offset="0.52" stop-color="#49BDDD"/>
<stop offset="0.72" stop-color="#4E9CDB"/>
<stop offset="0.93" stop-color="#5472D8"/>
<stop offset="1" stop-color="#5761D7"/>
</linearGradient>
<linearGradient id="paint45_linear" x1="12531.8" y1="11935.2" x2="14085.5" y2="11935.2" gradientUnits="userSpaceOnUse">
<stop stop-color="#42E8E0"/>
<stop offset="0.15" stop-color="#43E3E0"/>
<stop offset="0.33" stop-color="#45D5DF"/>
<stop offset="0.52" stop-color="#49BDDD"/>
<stop offset="0.72" stop-color="#4E9CDB"/>
<stop offset="0.93" stop-color="#5472D8"/>
<stop offset="1" stop-color="#5761D7"/>
</linearGradient>
<linearGradient id="paint46_linear" x1="24659.8" y1="19143.6" x2="30874.3" y2="19143.6" gradientUnits="userSpaceOnUse">
<stop stop-color="#42E8E0"/>
<stop offset="0.15" stop-color="#43E3E0"/>
<stop offset="0.33" stop-color="#45D5DF"/>
<stop offset="0.52" stop-color="#49BDDD"/>
<stop offset="0.72" stop-color="#4E9CDB"/>
<stop offset="0.93" stop-color="#5472D8"/>
<stop offset="1" stop-color="#5761D7"/>
</linearGradient>
<linearGradient id="paint47_linear" x1="14137.2" y1="12607.5" x2="15690.8" y2="12607.5" gradientUnits="userSpaceOnUse">
<stop stop-color="#42E8E0"/>
<stop offset="0.15" stop-color="#43E3E0"/>
<stop offset="0.33" stop-color="#45D5DF"/>
<stop offset="0.52" stop-color="#49BDDD"/>
<stop offset="0.72" stop-color="#4E9CDB"/>
<stop offset="0.93" stop-color="#5472D8"/>
<stop offset="1" stop-color="#5761D7"/>
</linearGradient>
<linearGradient id="paint48_linear" x1="12531.8" y1="12613.1" x2="14085.5" y2="12613.1" gradientUnits="userSpaceOnUse">
<stop stop-color="#42E8E0"/>
<stop offset="0.15" stop-color="#43E3E0"/>
<stop offset="0.33" stop-color="#45D5DF"/>
<stop offset="0.52" stop-color="#49BDDD"/>
<stop offset="0.72" stop-color="#4E9CDB"/>
<stop offset="0.93" stop-color="#5472D8"/>
<stop offset="1" stop-color="#5761D7"/>
</linearGradient>
<clipPath id="clip0">
<rect width="738" height="611" fill="white"/>
</clipPath>
</defs>
</svg>
